<svg id="Capa_1" data-name="Capa 1" xmlns="http://www.w3.org/2000/svg" viewBox="0 0 458.82 237.64"><defs><style>.cls-1{fill:#fff;}</style></defs><path class="cls-1" d="M46.39,149.37v8.68h-1.6l-.4-2.19a5.77,5.77,0,0,1-5,2.48,8,8,0,0,1,0-15.9,7.57,7.57,0,0,1,6.07,2.82L43,146.91a4.53,4.53,0,0,0-3.62-1.65,5.12,5.12,0,0,0,0,10.23A4.32,4.32,0,0,0,43.91,152H39.54v-2.58Z"/><path class="cls-1" d="M59.55,152.5a5.87,5.87,0,1,1-5.88-5.83,5.77,5.77,0,0,1,5.88,5.83m-2.85,0a3,3,0,1,0-3,3.16,3,3,0,0,0,3-3.16"/><path class="cls-1" d="M72.84,152.5c0,2.92-2,5.84-5.41,5.84a4.25,4.25,0,0,1-3.56-1.58v1.29H61.09V142.7h2.78v5.55a4.2,4.2,0,0,1,3.56-1.58c3.44,0,5.41,2.92,5.41,5.83m-2.85,0a3,3,0,1,0-3,3.16,3,3,0,0,0,3-3.16"/><path class="cls-1" d="M74.29,143.82a1.48,1.48,0,1,1,1.47,1.49,1.47,1.47,0,0,1-1.47-1.49m.09,3.11h2.79v11.12H74.38Z"/><path class="cls-1" d="M89.91,153.58H81.66a3.06,3.06,0,0,0,3.16,2.28,3.24,3.24,0,0,0,2.48-1.1l2.24,1.32a5.81,5.81,0,0,1-4.72,2.26c-3.68,0-6.12-2.46-6.12-5.84a5.63,5.63,0,0,1,5.68-5.83c3.36,0,6,2.52,5.53,6.91m-2.72-2.15a2.62,2.62,0,0,0-2.76-2.28,2.77,2.77,0,0,0-2.77,2.28Z"/><path class="cls-1" d="M98,146.67v3c-3.29-.4-3.71,1.71-3.71,3.77v4.58H91.51V146.93H94.3v1.82A4.42,4.42,0,0,1,98,146.67"/><path class="cls-1" d="M109.63,151.3v6.75h-2.78v-6.18c0-1.43-.6-2.5-2.18-2.5a2.29,2.29,0,0,0-2.36,2.5v6.18H99.54V146.93h2.77v1.36a3.68,3.68,0,0,1,3.24-1.62c2.81,0,4.08,2.28,4.08,4.63"/><path class="cls-1" d="M122.9,152.5a5.87,5.87,0,1,1-5.88-5.83,5.77,5.77,0,0,1,5.88,5.83m-2.85,0a3,3,0,1,0-3,3.16,3,3,0,0,0,3-3.16"/><path class="cls-1" d="M140.8,142.7v15.35H138v-1.29a4.29,4.29,0,0,1-3.56,1.58c-3.44,0-5.41-2.92-5.41-5.84s2-5.83,5.41-5.83a4.24,4.24,0,0,1,3.56,1.58V142.7Zm-2.91,9.8a3,3,0,1,0-3,3.16,2.94,2.94,0,0,0,3-3.16"/><path class="cls-1" d="M153.55,153.58H145.3a3.05,3.05,0,0,0,3.16,2.28,3.24,3.24,0,0,0,2.48-1.1l2.24,1.32a5.81,5.81,0,0,1-4.72,2.26c-3.68,0-6.12-2.46-6.12-5.84a5.63,5.63,0,0,1,5.68-5.83c3.36,0,6,2.52,5.53,6.91m-2.72-2.15a2.63,2.63,0,0,0-2.77-2.28,2.76,2.76,0,0,0-2.76,2.28Z"/><path class="cls-1" d="M16.52,175.12h-4V172h9.74v11.53H18.93l.16-8.46ZM0,172.58c0-6.49,4.64-11.35,11.16-11.35A10.79,10.79,0,0,1,20,165.47l-4.45,2.94a5.42,5.42,0,0,0-4.39-2c-3.82,0-5.8,3.11-5.8,6.21m0,0c0,3.1,2,6.21,5.8,6.21a5.79,5.79,0,0,0,5.54-4.46l2.76.39,1.18,1.09c-.88,2.33-2.71,8.12-9.48,8.12C4.64,183.93,0,179.07,0,172.58"/><path class="cls-1" d="M40.06,167.66v15.89H35v-1.44A5.43,5.43,0,0,1,30.62,184c-4,0-5.83-3.14-5.83-6.33v-10h5.08v8.59A2.47,2.47,0,0,0,32.41,179,2.44,2.44,0,0,0,35,176.25v-8.59Z"/><path class="cls-1" d="M57.42,173.68v9.87H52.34v-1.47A5.48,5.48,0,0,1,48,184c-2.13,0-5.42-.82-5.42-4.67,0-5.27,6.83-5.27,7.89-5.27h1.88V174a2.32,2.32,0,0,0-2.6-2.57,5,5,0,0,0-3,1l-3.32-2.25a9.47,9.47,0,0,1,7.15-2.86c5.08,0,6.86,2.61,6.86,6.4m-5.08,2.88h-.4c-2.54,0-4.23.47-4.23,2.07,0,1.16.94,1.6,2,1.6a3.44,3.44,0,0,0,2.6-1.13Z"/><path class="cls-1" d="M77.11,161.61v21.94H72V182A5.53,5.53,0,0,1,67.55,184c-5,0-7.62-4.17-7.62-8.34s2.66-8.34,7.62-8.34A5.5,5.5,0,0,1,72,169.23v-7.62Zm-5.24,14a3.26,3.26,0,0,0-3.41-3.42,3.41,3.41,0,1,0,3.41,3.42"/><path class="cls-1" d="M94.47,173.68v9.87H89.39v-1.47A5.49,5.49,0,0,1,85,184c-2.13,0-5.42-.82-5.42-4.67,0-5.27,6.84-5.27,7.9-5.27h1.88V174a2.32,2.32,0,0,0-2.6-2.57,5,5,0,0,0-3,1l-3.32-2.25a9.43,9.43,0,0,1,7.14-2.86c5.08,0,6.87,2.61,6.87,6.4m-5.08,2.88H89c-2.53,0-4.23.47-4.23,2.07,0,1.16.94,1.6,2,1.6a3.45,3.45,0,0,0,2.6-1.13Z"/><rect class="cls-1" x="97.92" y="161.61" width="5.11" height="21.94"/><path class="cls-1" d="M120.39,173.68v9.87h-5.08v-1.47A5.48,5.48,0,0,1,111,184c-2.14,0-5.43-.82-5.43-4.67,0-5.27,6.84-5.27,7.9-5.27h1.88V174a2.32,2.32,0,0,0-2.6-2.57,5,5,0,0,0-3,1l-3.32-2.25a9.44,9.44,0,0,1,7.15-2.86c5.07,0,6.86,2.61,6.86,6.4m-5.08,2.88h-.41c-2.53,0-4.23.47-4.23,2.07,0,1.16.94,1.6,2,1.6a3.45,3.45,0,0,0,2.6-1.13Z"/><path class="cls-1" d="M123.81,167.66h5.1V183c0,3.48-1.63,6.36-5.79,6.36a15,15,0,0,1-2.2-.22v-4.45c1.94.19,2.89-.25,2.89-2.23Zm-.1-4.45a2.67,2.67,0,1,1,2.67,2.69,2.67,2.67,0,0,1-2.67-2.69"/><path class="cls-1" d="M146.28,173.68v9.87H141.2v-1.47a5.52,5.52,0,0,1-4.36,1.88c-2.13,0-5.42-.82-5.42-4.67,0-5.27,6.83-5.27,7.9-5.27h1.88V174a2.32,2.32,0,0,0-2.6-2.57,5,5,0,0,0-3,1l-3.32-2.25a9.43,9.43,0,0,1,7.14-2.86c5.08,0,6.87,2.61,6.87,6.4m-5.08,2.88h-.41c-2.54,0-4.23.47-4.23,2.07,0,1.16.94,1.6,2,1.6a3.45,3.45,0,0,0,2.6-1.13Z"/><path class="cls-1" d="M159.82,167.28v5.46c-4.52-.69-5,1.88-5,4.54v6.27h-5.08V167.66h5.08v2.41a6.06,6.06,0,0,1,5-2.79"/><path class="cls-1" d="M175.62,173.68v9.87h-5.08v-1.47a5.52,5.52,0,0,1-4.36,1.88c-2.13,0-5.42-.82-5.42-4.67,0-5.27,6.83-5.27,7.9-5.27h1.88V174a2.32,2.32,0,0,0-2.6-2.57,5,5,0,0,0-3,1l-3.33-2.25a9.47,9.47,0,0,1,7.15-2.86c5.08,0,6.87,2.61,6.87,6.4m-5.08,2.88h-.41c-2.54,0-4.23.47-4.23,2.07,0,1.16.94,1.6,2,1.6a3.47,3.47,0,0,0,2.6-1.13Z"/><path class="cls-1" d="M98.11,97.25l-.74.43.08.11a.56.56,0,0,0,.81.14l.51-.6-.23-.09a.47.47,0,0,0-.43,0"/><path class="cls-1" d="M78.16,97.79l.09-.11-.74-.43a.47.47,0,0,0-.43,0l-.23.09.51.6a.55.55,0,0,0,.8-.14"/><path class="cls-1" d="M62.13,119.67l25.5,8.59,25.86-8.59V64.58H62.13Zm15.13-2.57h-1l-.17-.5-.87-2.39-.25.46h-.27v-1.09l.26-.08.23-.07a.69.69,0,0,0,.54-.76.73.73,0,0,0-.32-.62l-.06,0-.44-.32-.56-.39a5.89,5.89,0,0,1,4.7-2v1a.2.2,0,0,1,0,.07v1.46a2.57,2.57,0,0,1-1,2l-.13.09a2.85,2.85,0,0,1-.33.25h0l0,0h0a.55.55,0,0,0-.12.83h.06l2.24.34.6,1.66Zm8.19-.64a1.13,1.13,0,0,1,1.14-.54V97.58a8.34,8.34,0,0,0,1.13.09A9.51,9.51,0,0,0,89,97.56v18.36a1.11,1.11,0,0,1,1.13.54Zm15-3,.22.07.27.08v1.09h-.27l-.25-.46-.87,2.39-.18.5h-4l.61-1.66,2.24-.34h.06a.55.55,0,0,0-.13-.83h0l0,0h0l-.33-.25-.12-.09a2.54,2.54,0,0,1-1-2v-2.57a5.86,5.86,0,0,1,4.7,2l-.55.39-.44.32-.06,0a.73.73,0,0,0-.32.62.69.69,0,0,0,.54.76m3.93-13.22a4.85,4.85,0,0,1-1.05,3,6.93,6.93,0,0,1-1.41,1.25,3,3,0,0,0-1.62,2.51,4.82,4.82,0,0,1,2.25-1.86,3.78,3.78,0,0,0,.86,1.69,2.47,2.47,0,0,0,2.9.72,1.77,1.77,0,0,0,.41-.31,1.79,1.79,0,0,0,.1-2.39l-.27-.32a2.89,2.89,0,0,1-.67-1.84v-1.59a2.37,2.37,0,0,1,4.73,0v.33h0v1.08a1.08,1.08,0,0,1-1.08-1.08v-.33a1.28,1.28,0,0,0-2.56,0v1.59a1.75,1.75,0,0,0,.41,1.14l.27.33a2.86,2.86,0,0,1-.15,3.83,2.91,2.91,0,0,1-2.06.87h-.71c0,.41-.06,3.08,2.26,3.88l.54.17V114h-.27l-.37-.69-.56,3.28-.1.5h-4.09l.63-1.67,2-.32h0s.36-.68-.34-.79h0a2.82,2.82,0,0,1-.52-.1,3.53,3.53,0,0,1-2.32-2,6.35,6.35,0,0,1-.23-.7,4,4,0,0,0-3.24-3.06l-4.55-1.16v.07a.65.65,0,0,1-.63.53H91.37l.35-2,4.31-.28a2.52,2.52,0,0,1,.11-.62l-2,.09-1.72-3.23h-.21a.65.65,0,0,1-.6-.41l-.72-1.81h2.24l2.47,3.31,2,0a4.44,4.44,0,0,1,.43-.44l.51-.56c1.35-1.53,1.05-2.49,1.05-2.49a2.48,2.48,0,0,1-.6.88h0a3.34,3.34,0,0,1-.34.23L97,101.62a.43.43,0,0,1-.66-.16l-.3-1a6.53,6.53,0,0,0,1.29-.29c.33-.14.65-.3.65-.66a.65.65,0,0,0-.65-.66c-.37,0-.57.23-.92.58a4.6,4.6,0,0,1-.51.46.4.4,0,0,1-.56-.05l-1-1.09,2.93-1.68.76-.44-1,.21-.63-.51a.3.3,0,0,1-.09-.34h0a.18.18,0,0,1,.06-.09,2.87,2.87,0,0,1,1.19-1,4.68,4.68,0,0,1,5.2.94,5.3,5.3,0,0,1,1.61,4.14s0,.09,0,.14v0M75.71,80.3v-.06a6.7,6.7,0,0,1,6.52-6.84,6.41,6.41,0,0,1,11.75,0,6.73,6.73,0,0,1,5.87,6.8v0A6.93,6.93,0,0,1,102.9,86a6.71,6.71,0,0,1-6.55,6.85,6.37,6.37,0,0,1-1-.08,7.68,7.68,0,0,1-.83-.19A8.55,8.55,0,0,1,89,96a8.17,8.17,0,0,1-1.31.11,8.48,8.48,0,0,1-6.8-3.46,5.81,5.81,0,0,1-.85.17,5.32,5.32,0,0,1-.81.06A6.7,6.7,0,0,1,72.72,86a6.9,6.9,0,0,1,3-5.74M65,101.44h0v-.33a2.36,2.36,0,0,1,4.72,0v1.59a2.88,2.88,0,0,1-.66,1.84l-.27.32a1.8,1.8,0,0,0,.09,2.39,1.77,1.77,0,0,0,.41.31,2.49,2.49,0,0,0,2.91-.72,4,4,0,0,0,.86-1.69A4.82,4.82,0,0,1,75.33,107a2.94,2.94,0,0,0-1.63-2.51,6.79,6.79,0,0,1-1.4-1.25,4.85,4.85,0,0,1-1-3v0a.68.68,0,0,0,0-.14,5.27,5.27,0,0,1,1.62-4.14,4.68,4.68,0,0,1,5.2-.94,2.93,2.93,0,0,1,1.19,1,.18.18,0,0,1,.06.09h0a.28.28,0,0,1-.08.34l-.63.51-1-.21.76.44h0l2.93,1.68-.95,1.09a.4.4,0,0,1-.56.05,5.87,5.87,0,0,1-.52-.46c-.35-.35-.55-.58-.91-.58a.66.66,0,0,0-.66.66c0,.36.32.52.66.66a6.53,6.53,0,0,0,1.29.29l-.31,1a.42.42,0,0,1-.65.16l-1.58-1.1a3.34,3.34,0,0,1-.34-.23h0a2.25,2.25,0,0,1-.6-.88s-.31,1,1,2.49l.51.56a4.32,4.32,0,0,1,.42.44l2,0,2.47-3.31h2.24l-.72,1.81a.65.65,0,0,1-.6.41h-.21l-1.72,3.23-2-.09a3.09,3.09,0,0,1,.11.62l4.31.28.35,2H82.64a.64.64,0,0,1-.63-.53v-.07l-4.56,1.16a4,4,0,0,0-3.24,3.06,6.28,6.28,0,0,1-.22.7,3.56,3.56,0,0,1-.77,1.12,3.61,3.61,0,0,1-1.55.9,3,3,0,0,1-.52.1h0c-.7.11-.33.79-.33.79h0l2,.32.64,1.67h-4.1l-.09-.5-.57-3.28-.37.69h-.27v-1.09l.55-.17c2.31-.8,2.28-3.47,2.26-3.88h-.71a2.91,2.91,0,0,1-2.07-.87,2.88,2.88,0,0,1-.14-3.83l.27-.33a1.81,1.81,0,0,0,.41-1.14v-1.59a1.28,1.28,0,0,0-2.56,0v.33A1.08,1.08,0,0,1,65,102.52Z"/><path class="cls-1" d="M154.58,72.27a11.24,11.24,0,0,0-1.19-1.1c-.12-.09-.56-.49-.88-.71a.82.82,0,0,0-.29-.14h0l.7-.24.53-.18.56-.19.27-.09.95-.33a9.41,9.41,0,0,0-4.48-3.58,14.72,14.72,0,0,0-5.72-1,20.73,20.73,0,0,0-5.14.69c-1.66.43-3.18,1.22-4.83,1.66a5.08,5.08,0,0,1-2.89,0,47.76,47.76,0,0,1-5.47-2.47c.47-.13.93-.26,1.37-.41,7.85-2.64,11.16-8.74,11.13-15.84a17.78,17.78,0,0,0-8.8-15,5.54,5.54,0,0,0-.53-.3l-.18-.09h0l-.2-.11-.15-.07-.24-.11-.31-.15-.26-.11-.3-.12-.28-.11-.1,0-.18-.07h0l-.29-.11-.27-.08-.32-.1-.22-.06h0l-.37-.11h0l-.1,0h0a16.85,16.85,0,0,0-2.12-.4h-.07l-.5-.05h-.09l-.5,0h-.08l-.51,0h-.6a16.64,16.64,0,0,0-2.12.13h0l-.5.07h-.05a18.9,18.9,0,0,0-2.58.59h0l-.5.17h0A16.56,16.56,0,0,0,113.31,33l-.61.34h0c-.19.11-.37.23-.55.35h0l-.06,0h0l-.48.33h0l-.08.06h0l-.55.42a14.45,14.45,0,0,0-1.9,1.85,11.49,11.49,0,0,0-.49,14.4,11.16,11.16,0,0,0,3.28,2.8,7.08,7.08,0,0,0,7.26.46c-1-.69-2.69-3.71-2.69-3.71a7.48,7.48,0,0,0,1.36.12,8.51,8.51,0,0,0,6.54-3.1c-2.9.45-5-2.28-5-2.28A4.67,4.67,0,0,1,118.7,43c0-2.7,1.79-3.3,3.31-3.32a8.71,8.71,0,0,1,6,14.74,7.12,7.12,0,0,1-.69.66,7.61,7.61,0,0,1-.72.55,8.12,8.12,0,0,1-.74.45c-.26.13-.51.24-.78.35a9.25,9.25,0,0,1-2.56.54c-.3,0-.61,0-.93,0h-.36L98.82,57l-1.5-.63a9.47,9.47,0,0,1-3.75-3.08,12.91,12.91,0,0,0,4.5-7.78,2.51,2.51,0,0,0,.89-1.9,2.47,2.47,0,0,0-1.15-2.07A11.1,11.1,0,0,0,90.25,33a10,10,0,0,0-1.5-1.25,1.58,1.58,0,0,0-1-.31,1.63,1.63,0,0,0-1,.31A9.61,9.61,0,0,0,85.33,33a11.09,11.09,0,0,0-7.55,8.5,2.45,2.45,0,0,0-1.12,2,2.47,2.47,0,0,0,.87,1.88,13.1,13.1,0,0,0,4.73,7.93,11,11,0,0,1-3.83,3L77.24,57,54.36,57h-.83l-.47,0-.4,0h-.12l-.29,0-.12,0-.39-.07-.38-.09-.11,0L51,56.57l-.11,0-.36-.12c-.27-.11-.53-.22-.78-.35a8.27,8.27,0,0,1-.75-.45c-.24-.17-.48-.35-.71-.55l-.19-.16c-.17-.16-.34-.32-.5-.5a8.7,8.7,0,0,1,6-14.74c1.52,0,3.33.62,3.31,3.32a4.67,4.67,0,0,1-.63,2.14s-2.07,2.73-5,2.28a8.49,8.49,0,0,0,6.54,3.1,7.37,7.37,0,0,0,1.35-.12s-1.7,3-2.68,3.71a7.08,7.08,0,0,0,7.26-.46,11.16,11.16,0,0,0,3.28-2.8,11.5,11.5,0,0,0-.49-14.4,14.45,14.45,0,0,0-1.9-1.85l-.55-.42h0L64,34.09l-.47-.32h0l-.06,0L63,33.4l0,0h0l-.6-.34A17.15,17.15,0,0,0,59.86,32h0l-.5-.17h0a18.76,18.76,0,0,0-2.57-.59h-.06l-.49-.07h0A16.64,16.64,0,0,0,54.06,31h-.6L53,31h-.08l-.51,0h-.08l-.51.05h-.06a17,17,0,0,0-2.13.4h0l-.1,0-.38.11-.21.06-.33.1-.26.08,0,0L48,32l-.19.07-.09,0-.28.11-.3.12-.26.11-.32.15-.23.11-.15.07-.2.1h0l-.18.09a5.54,5.54,0,0,0-.53.3,17.76,17.76,0,0,0-8.8,15c0,7.1,3.28,13.2,11.13,15.84.44.15.9.28,1.36.41a47,47,0,0,1-5.47,2.47,5,5,0,0,1-2.88,0c-1.65-.44-3.18-1.23-4.83-1.66a20.79,20.79,0,0,0-5.14-.69,14.77,14.77,0,0,0-5.73,1,9.46,9.46,0,0,0-4.48,3.58h0a0,0,0,0,1,0,0h.05l.88.3.27.09.51.18,1.15.39.12,0h0a.18.18,0,0,0-.14,0,1.12,1.12,0,0,0-.18.1l-.12.08,0,0-.09.07,0,0-.12.09,0,0-.08.07,0,0-.08.06,0,0-.08.07-.08.07h0l-.05,0A9.58,9.58,0,0,0,21,72.27a9.77,9.77,0,0,0-1.79,2.67,13.43,13.43,0,0,0-.71,7.29,42.89,42.89,0,0,1,4.55-3,13.14,13.14,0,0,1,5-1.6c-4.83,3.17-7.59,9.1-8.07,14.73Q20,93,20,93.52a20.9,20.9,0,0,0,26.1,20.82c5.81-1.66,8-5.17,8-5.17l.28-.61v17.38l33.21,11.2,33.69-11.2V108.56l.28.61s2.2,3.51,8,5.17a20.89,20.89,0,0,0,26.1-20.82q0-.57-.06-1.14c-.47-5.63-3.24-11.56-8.06-14.73a13.2,13.2,0,0,1,5,1.6,43.93,43.93,0,0,1,4.55,3,13.53,13.53,0,0,0-.71-7.29,10,10,0,0,0-1.79-2.67M54.36,92.56c-.13-.26-.28-.5-.43-.74l-.07-.11-.17-.24-.07-.1-.23-.31c-.2-.27-.4-.54-.62-.81a9.48,9.48,0,0,0-10.21-2.91c.11,0,.83.94.91,1,.57.67,1.14,1.37,1.65,2.09A11.86,11.86,0,0,1,47.29,97a4.35,4.35,0,0,0-2.87-1.61c.59,2.92,1.63,6.85-1,9-2,1.67-4.83,1.22-7,.29a11.73,11.73,0,0,1-6.94-8.42A10.88,10.88,0,0,1,29.2,94c0-.2,0-.4,0-.6v-.15a11.92,11.92,0,0,1,.15-1.2l0-.15c0-.19.08-.38.12-.58h0c0-.17.09-.33.14-.49s0-.1,0-.16.07-.22.11-.34l.06-.16a3.42,3.42,0,0,1,.13-.34l.06-.15c.13-.31.27-.62.43-.93l.07-.14.18-.31.09-.16.19-.3.09-.14a4.15,4.15,0,0,1,.3-.43,1.48,1.48,0,0,0,.13-.21c.05-.07,4.18-6.82,20.28-13.94l2.53-1.1Zm0-23.13-.63.28-1.22.54,0,0-.14.06-.09,0-.06,0-.09,0c-.17.08-.3.13-.38.18l0,0-.07,0C33.72,78.41,29.53,85.9,29.53,85.9c-.2.28-.4.57-.58.87l-.07.12-.19.32-.07.13-.23.43c-.08.15-.15.3-.22.45l-.06.13-.15.34s0,.09-.05.13c-.13.32-.26.65-.36,1a14.21,14.21,0,0,0,4.2,14.84,14,14,0,0,0,6.66,3.17c4.55.79,9.14-2.25,9.14-7.12a8.08,8.08,0,0,0,0-.85c0-.16,0-.31-.07-.46a1.12,1.12,0,0,1,.15.13l.11.11a2.17,2.17,0,0,1,.2.26L48,100c0,.05.07.1.1.16l0,.06c0,.06.07.12.1.19v0c0,.08.08.16.12.26h0c.06.15.12.31.17.48v0a4.12,4.12,0,0,1,.14.76s0,0,0,0,0,.12,0,.18a.28.28,0,0,1,0,.09c0,.12,0,.25,0,.38s0,.08,0,.12v.16c0,.16,0,.33,0,.51l0,.22a.2.2,0,0,0,0,.07c0-.2.39-.55.5-.74a6.1,6.1,0,0,0,.39-.86,8.57,8.57,0,0,0,.27-.86c.06-.25.11-.51.16-.77s.09-.65.11-1a13.65,13.65,0,0,0-.19-3.19c-.07-.43-.16-.86-.25-1.29a24.94,24.94,0,0,0-1.06-3.16,10.24,10.24,0,0,0-1.31-2.14l0,0-.3-.35h0a4.36,4.36,0,0,1,.92.24c.14,0,.28.1.44.16l.31.14.17.08.34.19a7.26,7.26,0,0,1,2.29,2.08c2.75,3.88,3.84,9.6,1.74,14-2.15,4.55-7.69,6.38-12.4,6.35A18.44,18.44,0,0,1,22.37,94c0-6.28,3.34-11.26,7.81-15.39l.84-.75c.43-.36,1.34-1.13,2.26-1.83,0,0,0,0,.06,0h0a11.57,11.57,0,0,1,2.15-1.44,9.16,9.16,0,0,0-4.69,1.05,15.88,15.88,0,0,0-8.19,1.56,14.35,14.35,0,0,0-2,1.2V78c0-.14,0-.32,0-.51l0-.2h0c0-.09,0-.18.06-.29s0,0,0-.07.05-.21.08-.32h0c0-.17.1-.34.16-.52a2.44,2.44,0,0,1,.1-.24l0-.07c0-.06.05-.12.08-.19l0-.07c0-.08.08-.17.13-.25,1.52-2.92,4.87-4.31,7.41-5l0,0v0c0-.07-.29-1.72-4.66-1.84a4.2,4.2,0,0,1,.75-.46,11.24,11.24,0,0,1,3.58-1.13,15.34,15.34,0,0,1,5.17.13,24.62,24.62,0,0,1,4.89,1.57l.55.22,1.37.58,0,0,.56.25h0l.25.12.09,0,.22.1.08,0L42,70l0,0,.24.11.08,0,.24.11,0,0,.28.15.07,0,.21.12.08,0,.67.38c.28.17.54.34.77.51l0,0a4.7,4.7,0,0,1,.45.37l.21.22h0v0h0V72.1a.1.1,0,0,1,0,0,0,0,0,0,0,0,0v0s0,0,0-.08,0,0,0,0l0-.09s0,0,0,0l0,0s0,0,0-.06l0,0a0,0,0,0,0,0,0,.69.69,0,0,0,0-.1l0,0-.06-.14,0,0s0,0,0,0a.47.47,0,0,0-.05-.1l0-.06-.08-.13,0,0,0-.06-.1-.15v0a.21.21,0,0,1,0-.06l-.09-.12,0-.06,0-.06-.09-.12-.06-.08,0-.06h0l-.17-.2s0,0,0,0L44,69.73a.52.52,0,0,0-.1-.11h0l3.23-1.51.31-.14h0l1-.51.07,0,.36-.17.42-.2s4.8-2.19,4.25-3.81a21.18,21.18,0,0,1-6-1.53h0l-.06,0h0l-.34-.13h0L47,61.47h0l-.13-.05h0a4,4,0,0,1-.56-.25h0L46,61c-.35-.2-.69-.42-1-.65h0c-.28-.2-.55-.41-.81-.62l0,0-.42-.36-.08-.08h0L43,58.63h0l-.12-.13a4.12,4.12,0,0,1-.28-.31.6.6,0,0,1-.08-.08l-.34-.41h0l-.32-.4h0l0-.06c-.12-.15-.23-.31-.33-.46l0-.07h0l-.2-.31h0l-.09-.14c-.21-.34-.41-.69-.59-1l0,0c-.06-.11-.11-.23-.17-.34h0l0-.07c-.07-.14-.13-.29-.2-.43h0L40,54.17c-.06-.14-.11-.28-.17-.43l0-.07h0c-.13-.34-.24-.69-.34-1h0l-.06-.18-.09-.36h0s0-.05,0-.08a4.88,4.88,0,0,1-.12-.55l0-.1h0c0-.18-.07-.36-.1-.54v-.06c0-.16-.05-.33-.07-.5s0-.1,0-.15,0-.28,0-.42,0-.13,0-.2,0-.26,0-.39h0V49c0-.21,0-.42,0-.64A15.07,15.07,0,0,1,54,33.38c4.25,0,9.23,1.95,11.57,5.68a8.93,8.93,0,0,1,.74,8.37,8.75,8.75,0,0,1-2.22,3A10,10,0,0,1,61,52.24a11.35,11.35,0,0,0,1.25-3.16,7.82,7.82,0,0,0-.7-5.59.28.28,0,0,0,0,.06h0v0h0c0,.05,0,.11,0,.19h0v0h0c0,.17,0,.4,0,.67h0v.28h0a1.77,1.77,0,0,1,0,.23v0h0a2,2,0,0,1,0,.23v0l0,.25h0c0,.09,0,.16,0,.24v0l-.06.22h0a0,0,0,0,1,0,0,1.42,1.42,0,0,1-.07.22v0s0,0,0,0l0,.1,0,.05h0l0,.09h0s0,0,0,.05l-.08.12h0a1.72,1.72,0,0,1-.29.31,5,5,0,0,1-3,1c-.31,0-.63,0-1-.08a6.59,6.59,0,0,0,2.5-5,5.41,5.41,0,0,0-4-5.49c-5-1.3-10.32,2.51-11.91,7.1-2.24,6.47,2.1,14.54,9.22,14.83h0l1.69,0ZM79.87,44.36c0-.27,0-.54,0-.8l1.62-.39v2.35l-1.64-.93c0-.07,0-.15,0-.23m3.83-1.7,3-.72v6.5l-3-1.7ZM88.89,42l3,.73v4.07l-3,1.7Zm5.17,1.26,1.64.4c0,.25,0,.5,0,.75,0,.07,0,.14,0,.21l-1.66.94Zm-7.38-8,1.13-.93,1.12.93a8.36,8.36,0,0,1,6.34,6.08L87.8,39.44l-7.45,1.77a8.33,8.33,0,0,1,6.33-6M80.62,47.51l7.2,4.05L95,47.47c-1.6,3.57-5.51,6.16-7.21,6.16-1.52,0-5.52-2.56-7.18-6.12m3.59,7.29A7.59,7.59,0,0,0,87.8,56a7.94,7.94,0,0,0,3.84-1.35,12.63,12.63,0,0,0,3.19,3.05A21.34,21.34,0,0,1,88,61.38a18.43,18.43,0,0,1-7.11-3.6,12.63,12.63,0,0,0,3.32-3m34.69,69.43L87.58,134.65,56.72,124.24V59.35H79.05a20.87,20.87,0,0,0,8.72,4.46l.29.06.29-.08a23.44,23.44,0,0,0,8.28-4.44H118.9Zm2.36-52.18,2.52,1.1C139.89,80.27,144,87,144.06,87.09a1.53,1.53,0,0,0,.14.21,12.37,12.37,0,0,1,1.15,1.94,11.46,11.46,0,0,1,.73,2.11,10.93,10.93,0,0,1,.33,2.68,11.58,11.58,0,0,1-.22,2.3,11.73,11.73,0,0,1-6.94,8.42c-2.22.93-5.05,1.38-7-.29-2.64-2.2-1.61-6.13-1-9A4.35,4.35,0,0,0,128.33,97a11.78,11.78,0,0,1,2.17-6.57,25.22,25.22,0,0,1,1.65-2.09c.07-.08.8-1,.91-1a9.48,9.48,0,0,0-10.21,2.91q-.33.41-.63.81c-.26.35-.52.72-.75,1.1l-.21.4Zm33.79,6.36a13.8,13.8,0,0,0-2-1.2,15.83,15.83,0,0,0-8.18-1.56,9.17,9.17,0,0,0-4.69-1.05A11.91,11.91,0,0,1,142.31,76h0s0,0,.07,0c.91.7,1.83,1.47,2.25,1.83l.84.75c4.47,4.13,7.78,9.11,7.82,15.39a18.45,18.45,0,0,1-18.31,18.53c-4.71,0-10.25-1.8-12.41-6.35-2.09-4.4-1-10.12,1.75-14a7.06,7.06,0,0,1,4.47-2.89,13.81,13.81,0,0,0-3,7,11.19,11.19,0,0,0,.36,5.8,6.28,6.28,0,0,0,.6,1.22c.06.08.27.28.29.38-.52-3.1,1.14-4.31,1.14-4.31,0,.15-.06.3-.08.46s0,.57,0,.85c0,4.87,4.59,7.91,9.14,7.12a14,14,0,0,0,6.66-3.17,14.23,14.23,0,0,0,4.2-14.84l-.18-.52a14.38,14.38,0,0,0-.66-1.51,15.48,15.48,0,0,0-.83-1.42l-.31-.45S141.9,78.41,124,70.66l-.07,0-.18-.09-.14-.06-.21-.1-1.49-.67-.66-.29v-10l1.69,0h0c7.12-.29,11.45-8.36,9.22-14.83-1.59-4.59-6.95-8.4-11.91-7.1a5.39,5.39,0,0,0-4,5.49,6.59,6.59,0,0,0,2.5,5c-.35,0-.67.07-1,.08a5,5,0,0,1-3-1,1.45,1.45,0,0,1-.18-.17l-.11-.14,0,0a.41.41,0,0,0,0-.09l0-.05a.41.41,0,0,0,0-.09l0-.05a.42.42,0,0,1,0-.1l0,0v0a1.42,1.42,0,0,1-.07-.22l0,0a1.89,1.89,0,0,1,0-.23v0a2,2,0,0,1,0-.24h0a2,2,0,0,1,0-.25v0c0-.08,0-.16,0-.24v0a1.77,1.77,0,0,0,0-.23v-.28a2.72,2.72,0,0,0,0-.28.57.57,0,0,0,0-.13c0-.1,0-.19,0-.27v0a1.76,1.76,0,0,0,0-.19,0,0,0,0,0,0,0h0v0h0a7.85,7.85,0,0,0-.71,5.59,11.27,11.27,0,0,0,1.26,3.16,10,10,0,0,1-3.15-1.77,8.72,8.72,0,0,1-2.21-3,8.93,8.93,0,0,1,.73-8.37c2.34-3.73,7.32-5.66,11.58-5.68a15.06,15.06,0,0,1,15.13,15c0,.2,0,.39,0,.58a1.09,1.09,0,0,1,0,.18c0,.13,0,.26,0,.39s0,.13,0,.2,0,.26,0,.38,0,.13,0,.19l-.06.45s0,.07,0,.11-.06.36-.1.54l0,.15-.09.39c0,.07,0,.13,0,.19s-.06.24-.1.36a1.21,1.21,0,0,1-.05.18L136,53s0,.09,0,.14l-.18.51,0,.09c0,.14-.11.27-.16.41s0,.11-.08.17-.1.22-.15.33l-.08.17-.16.34s0,.1-.08.14c-.17.32-.34.63-.53.93l-.09.14-.2.31-.11.15-.21.29-.1.15-.27.34-.06.07-.34.41-.09.1-.27.29-.12.13c-.09.08-.17.17-.25.25l-.13.13-.29.26-.1.09-.4.35-.08.06-.33.26-.14.1-.29.22-.16.1-.3.2-.14.09-.45.27-.25.14a10.45,10.45,0,0,1-1.24.51h0l-.06,0h0a21.2,21.2,0,0,1-6,1.53c-.55,1.62,4.25,3.81,4.26,3.81l.42.2.35.17,1.12.54,0,0,.31.14h0l3.23,1.51-.22.23,0,.05c-.07.07-.12.14-.18.21l-.05.06-.15.19,0,.07-.13.18,0,.06-.11.17,0,.06-.09.16,0,.06-.08.15s0,0,0,0l-.07.14a.08.08,0,0,1,0,0,.69.69,0,0,1,0,.13s0,0,0,0a.36.36,0,0,0,0,.11l0,0s0,.06,0,.09v0a.24.24,0,0,0,0,.08v0s0,0,0,.06a0,0,0,0,1,0,0v.08h0l.2-.22.26-.22c.14-.11.29-.23.46-.34l.36-.24.2-.12.4-.24c.78-.43,1.67-.87,2.53-1.26l1.14-.5.83-.35.54-.22A24.83,24.83,0,0,1,142,66.94a15.39,15.39,0,0,1,5.18-.13,11.24,11.24,0,0,1,3.58,1.13,4.2,4.2,0,0,1,.75.46c-4.37.12-4.66,1.77-4.67,1.84v0l0,0c2.54.64,5.88,2,7.41,5a5.7,5.7,0,0,1,.36.82c.07.18.12.35.17.52s.11.48.15.69.06.52.07.71,0,.34,0,.42"/><path class="cls-1" d="M97.84,29.2v-2l-1.58,1.05c.53.28,1,.59,1.58.94"/><path class="cls-1" d="M87.71,29.62A7,7,0,0,0,89.42,31V26.18a17.39,17.39,0,0,0-3.4.06V31a6.73,6.73,0,0,0,1.69-1.4"/><path class="cls-1" d="M89.42,26.18v-.35H86v.41a16.64,16.64,0,0,1,3.4-.06"/><path class="cls-1" d="M91.44,6.25,87.84,0,84.37,6a16.88,16.88,0,0,1,7.07.25"/><path class="cls-1" d="M97.84,29.2c-.53-.35-1-.66-1.58-.94l-1.92,1.26c2.29,1,11.58,4.35,19.76-1.47l-5.44-5L112.58,14a15.52,15.52,0,0,1-14.33,2.22L97.84,16V29.2Z"/><path class="cls-1" d="M89.42,25.83v.35a17,17,0,0,1,3.57.69v-.42c-.45-2.08-1-4.95-1.43-7.48H89.38v3.19H86V19H83v-3.1h3V12.72h3.39v3.15H91c-.26-1.56-.42-2.61-.42-2.61L97.84,16V10.65a22.41,22.41,0,0,0-9.11-2.91,15.15,15.15,0,0,0-6.9,1.38c0-.19,0-.36,0-.55a16.13,16.13,0,0,0-4,2.08V29.2a19,19,0,0,1,8.2-3v-.41Z"/><path class="cls-1" d="M88.73,7.74a16.59,16.59,0,0,0-6.91.83c0,.19,0,.36,0,.55a15.15,15.15,0,0,1,6.9-1.38"/><path class="cls-1" d="M91,15.87h1.36V19h-.83c.45,2.53,1,5.4,1.43,7.48v-.62l4.85,1.38V16l-7.23-2.78s.16,1.05.42,2.61"/><path class="cls-1" d="M93,26.45v.42l.1,0c0-.15-.06-.31-.1-.46"/><path class="cls-1" d="M96.26,28.26l1.58-1.05L93,25.83v.62c0,.15.07.31.1.46a17.43,17.43,0,0,1,3.17,1.35"/><path class="cls-1" d="M125.55,206.45a4.48,4.48,0,0,0-5.93,2.12,35.18,35.18,0,0,1-63.63,0,4.45,4.45,0,0,0-5.92-2.13A4.46,4.46,0,0,0,48,212.38a44.08,44.08,0,0,0,79.72,0,4.46,4.46,0,0,0-2.12-5.93"/><path class="cls-1" d="M328.24,64.89l5.18,3.4a10.93,10.93,0,0,1-19.7-6.53,10.93,10.93,0,0,1,19.7-6.51l-5.18,3.4a4.4,4.4,0,0,0-3.68-1.78c-2.89,0-4.61,2.14-4.61,4.89s1.72,4.87,4.61,4.87a4.38,4.38,0,0,0,3.68-1.74"/><path class="cls-1" d="M335.71,52.75a2.83,2.83,0,1,1,2.83,2.83,2.81,2.81,0,0,1-2.83-2.83m.12,4.27h5.42V72.3h-5.42Z"/><path class="cls-1" d="M360.07,57V72.3h-5.42V70.67a4.78,4.78,0,0,1-4.18,2c-4.76,0-5.61-3.86-5.61-6.09V57h5.42v8.25a2.19,2.19,0,0,0,4.37,0V57Z"/><path class="cls-1" d="M379.29,51.21V72.3h-5.42V71.06a5,5,0,0,1-4,1.63c-4.76,0-7.11-4-7.11-8s2.35-8,7.11-8a5.08,5.08,0,0,1,4,1.6v-7Zm-5.57,13.47A2.63,2.63,0,0,0,371,61.93a2.73,2.73,0,1,0,2.74,2.75"/><path class="cls-1" d="M396.64,62.81V72.3h-5.45V70.88a5.06,5.06,0,0,1-4.07,1.81c-1.89,0-5.12-.78-5.12-4.49,0-5.12,6.39-5.12,7.41-5.12h1.78a2,2,0,0,0-2.2-2.2,4.64,4.64,0,0,0-2.71.88l-3.46-2.35a9.22,9.22,0,0,1,7-2.75c4.87,0,6.86,2.5,6.86,6.15m-5.45,3h-.39c-2.41,0-3.31.57-3.31,1.54,0,.72.54,1.26,1.5,1.26a2.65,2.65,0,0,0,2.2-1.08Z"/><path class="cls-1" d="M415.86,51.21V72.3h-5.42V71.06a5,5,0,0,1-4,1.63c-4.76,0-7.1-4-7.1-8s2.34-8,7.1-8a5.09,5.09,0,0,1,4,1.6v-7Zm-5.57,13.47a2.63,2.63,0,0,0-2.74-2.75,2.73,2.73,0,1,0,2.74,2.75"/><path class="cls-1" d="M323.89,85.25v34.29H315V108.08a8,8,0,0,1-6.47,2.64c-7.74,0-11.56-6.51-11.56-13s3.82-13,11.56-13a8.11,8.11,0,0,1,6.47,2.6v-2Zm-9.11,12.44a4.24,4.24,0,0,0-4.46-4.45,4.43,4.43,0,1,0,4.46,4.45"/><path class="cls-1" d="M354.51,85.25v24.84H345.7v-2.65a7.8,7.8,0,0,1-6.81,3.28c-7.74,0-9.12-6.27-9.12-9.89V85.25h8.82V98.67a3.56,3.56,0,0,0,7.11,0V85.25Z"/><path class="cls-1" d="M360.2,78.29a4.61,4.61,0,1,1,4.6,4.61,4.58,4.58,0,0,1-4.6-4.61m.19,7h8.82v24.84h-8.82Z"/><path class="cls-1" d="M397.71,95.51c-6,1.62-11.5,3.4-14.22,6.09,1.53,1.92,3.77,2.49,6.45,1.4a6.1,6.1,0,0,0,3.48-3.65l6.82,1c-.46,3.52-3.22,7.13-7.71,9-7.76,3.16-15,.46-17.93-6.71a12.84,12.84,0,0,1,7.21-17.07c6.38-2.6,13.83-.53,17,7.74a1.66,1.66,0,0,1-1.11,2.2m-7.61-1.84a4.38,4.38,0,0,0-5.69-1.75c-2.09.85-3,2.87-2.73,5.24a16.11,16.11,0,0,1,8.42-3.49"/><path class="cls-1" d="M420.21,91.5v9.55c-6.66-.78-7.39,2.55-7.39,6.52v9.35H404V92.08h8.82V96a8.77,8.77,0,0,1,7.39-4.5"/><path class="cls-1" d="M449.56,97.69c0,7.6-5.58,13-13.32,13s-13.33-5.43-13.33-13,5.58-13,13.33-13,13.32,5.44,13.32,13m-8.92,0a4.43,4.43,0,1,0-4.4,4.41,4.2,4.2,0,0,0,4.4-4.41"/><polygon class="cls-1" points="295.94 69.69 295.94 72.3 287.56 72.3 287.56 57.82 290.35 57.82 290.35 69.69 295.94 69.69"/><path class="cls-1" d="M307.31,66V72.3h-2.62V71.18a3.57,3.57,0,0,1-3.07,1.39c-1.57,0-3.72-.85-3.72-3.09,0-3.45,4.26-3.45,5.65-3.45h1.14c0-1.51-.56-2.17-2.18-2.17a4.21,4.21,0,0,0-2.19.76l-1.8-1.36a6.3,6.3,0,0,1,4.37-1.7c3.33,0,4.42,1.91,4.42,4.41m-2.62,1.71h-.17c-1.88,0-3.93,0-3.93,1.56,0,.78.52,1.42,1.82,1.42a2.5,2.5,0,0,0,2.28-1.2Z"/><path class="cls-1" d="M433.51,61.81V76.29h-2.63V71.08a4,4,0,0,1-3.33,1.49,5.22,5.22,0,0,1-5.13-5.5c0-2.76,1.86-5.51,5.13-5.51a3.94,3.94,0,0,1,3.33,1.49V61.81Zm-2.74,5.26a2.83,2.83,0,1,0-2.83,3,2.79,2.79,0,0,0,2.83-3"/><path class="cls-1" d="M445.92,61.81V72.3h-2.63V71a3.42,3.42,0,0,1-3,1.56c-2.65,0-3.85-2.16-3.85-4.37V61.81H439v5.83c0,1.35.56,2.36,2,2.36a2.14,2.14,0,0,0,2.23-2.36V61.81Z"/><path class="cls-1" d="M458.76,68.08H451a2.87,2.87,0,0,0,3,2.15,3,3,0,0,0,2.34-1l2.11,1.25A5.5,5.5,0,0,1,454,72.57c-3.47,0-5.77-2.32-5.77-5.5a5.32,5.32,0,0,1,5.36-5.51c3.17,0,5.69,2.38,5.21,6.52m-2.56-2a2.48,2.48,0,0,0-2.61-2.15,2.61,2.61,0,0,0-2.6,2.15Z"/><path class="cls-1" d="M411.51,147.19A45.93,45.93,0,0,1,370.17,121a4.15,4.15,0,0,1,7.5-3.54,37.43,37.43,0,0,0,67.68,0,4.15,4.15,0,1,1,7.5,3.54,45.93,45.93,0,0,1-41.34,26.19"/><path class="cls-1" d="M233.23,133.86h0a1.48,1.48,0,0,1-1.48-1.48V57.46a1.48,1.48,0,1,1,3,0v74.92a1.48,1.48,0,0,1-1.48,1.48"/></svg>